# xmcd
#
# Track frame offsets:
#	150
#	19945
#	32803
#	52410
#	75837
#	93285
#	101162
#	124632
#	141584
#	154059
#	171628
#	192800
#	212814
#
# Disc length: 3145 seconds
#
# Revision: 0
# Processed by: cddbd v1.5.2PL0 Copyright (c) Steve Scherf et al.
# Submitted via: EasyCDDAExtractor 16.1.0.1
#
DISCID=b80c470d
DTITLE=Jameylee - Heirloom
DYEAR=2007
DGENRE=Country
TTITLE0=Angel From Montgomery
TTITLE1=Drivin' Wheel
TTITLE2=Carolina
TTITLE3=Excess Baggage
TTITLE4=Walk On
TTITLE5=I Am Weary
TTITLE6=Simple Man
TTITLE7=Landslide
TTITLE8=Midnight Rider
TTITLE9=Old Dirt Road
TTITLE10=When You Say Nothing At All
TTITLE11=Tuesday's Gone
TTITLE12=Jolene
EXTD=
EXTT0=
EXTT1=
EXTT2=
EXTT3=
EXTT4=
EXTT5=
EXTT6=
EXTT7=
EXTT8=
EXTT9=
EXTT10=
EXTT11=
EXTT12=
PLAYORDER=
